#N canvas 67 120 575 400 10;
#X msg -197 209 devices;
#X msg -136 209 open 2;
#X msg -138 252 close;
#X obj -197 293 comport 2 9600;
#X text -467 96 Arduino's port number;
#X text -101 292 port can also be set here;
#X msg -282 253 100;
#X floatatom -281 214 5 0 255 0 - - -;
#X text -363 212 0-255 range;
#X obj -266 172 hsl 60 15 0 255 0 0 empty empty empty -2 -8 0 10 -262144
-1 -1 0 1;
#X text -230 338 comport connects to Arduino;
#X text -82 187 comment;
#X obj -261 77 comport 9600;
#X msg -261 -7 devices;
#X msg -200 -7 open 2;
#X obj -200 -43 loadbang;
#X floatatom -261 112 5 0 0 0 - - -;
#X msg -201 36 close;
#X obj -268 136 * 100;
#X connect 0 0 3 0;
#X connect 1 0 3 0;
#X connect 2 0 3 0;
#X connect 6 0 3 0;
#X connect 7 0 3 0;
#X connect 9 0 3 0;
#X connect 12 0 16 0;
#X connect 13 0 12 0;
#X connect 14 0 12 0;
#X connect 15 0 14 0;
#X connect 16 0 18 0;
#X connect 17 0 12 0;
#X connect 18 0 9 0;
